<svg width="110" height="15" viewBox="0 0 110 15" fill="none" xmlns="http://www.w3.org/2000/svg">
<path d="M7.11719 14.7964C3.21264 14.7964 0.158582 11.6264 0.158582 7.54787C0.158582 3.48868 3.21264 0.337977 7.11719 0.337977C10.7705 0.337977 13.6312 2.77349 14.1144 6.33011H11.0024C10.6738 4.33918 9.12745 2.96678 7.15585 2.96678C4.77832 2.96678 3.17398 4.84174 3.17398 7.54787C3.17398 10.2733 4.77832 12.1676 7.15585 12.1676C9.12745 12.1676 10.6545 10.7759 11.0024 8.78495H14.1144C13.6312 12.3802 10.7705 14.7964 7.11719 14.7964ZM18.6208 9.50014V14.5065H15.934V4.18454H18.4082V6.17547C19.162 4.86107 20.7663 4.06856 22.4287 4.06856V6.852C20.1478 6.67804 18.6208 7.21926 18.6208 9.50014ZM28.2333 14.6804C25.1405 14.6804 23.0723 12.5349 23.0723 9.30685C23.0723 6.23346 25.2179 3.99124 28.1946 3.99124C31.4613 3.99124 33.6262 6.63938 33.1429 10.0027H25.8171C25.991 11.6844 26.8029 12.6122 28.1753 12.6122C29.3544 12.6122 30.1469 12.0323 30.4561 11.0078H33.1236C32.5437 13.3467 30.7461 14.6804 28.2333 14.6804ZM28.1366 5.96285C26.8802 5.96285 26.0877 6.77469 25.8557 8.30171H30.3015C30.2242 6.87133 29.4124 5.96285 28.1366 5.96285ZM41.0893 14.5065V13.2307C40.4128 14.1972 39.3883 14.6998 37.9773 14.6998C35.8317 14.6998 34.4013 13.4433 34.4013 11.5104C34.4013 9.50014 36.025 8.41769 39.0404 8.41769C39.6203 8.41769 40.1228 8.45635 40.7607 8.53367V7.91512C40.7607 6.75536 40.1035 6.07883 38.9824 6.07883C37.8226 6.07883 37.1268 6.75536 37.0301 7.91512H34.6139C34.7686 5.5376 36.4889 3.99124 38.9824 3.99124C41.6885 3.99124 43.2735 5.47961 43.2735 8.01177V14.5065H41.0893ZM36.9335 11.4331C36.9335 12.3029 37.552 12.8441 38.5571 12.8441C39.9295 12.8441 40.7607 12.0903 40.7607 10.8919V10.1573C40.1228 10.0607 39.6783 10.022 39.2144 10.022C37.6873 10.022 36.9335 10.5053 36.9335 11.4331ZM51.8552 11.897V14.2359C51.198 14.5645 50.5795 14.6998 49.787 14.6998C47.6607 14.6998 46.327 13.482 46.327 11.1625V6.48474H44.2394V4.18454H46.327V1.13049H48.9945V4.18454H51.9519V6.48474H48.9945V10.5439C48.9945 11.7424 49.5357 12.2256 50.5022 12.2256C51.0047 12.2256 51.4686 12.1096 51.8552 11.897ZM57.8504 14.6804C54.7577 14.6804 52.6894 12.5349 52.6894 9.30685C52.6894 6.23346 54.835 3.99124 57.8117 3.99124C61.0784 3.99124 63.2433 6.63938 62.76 10.0027H55.4342C55.6081 11.6844 56.42 12.6122 57.7924 12.6122C58.9715 12.6122 59.764 12.0323 60.0733 11.0078H62.7407C62.1608 13.3467 60.3632 14.6804 57.8504 14.6804ZM57.7537 5.96285C56.4973 5.96285 55.7048 6.77469 55.4728 8.30171H59.9186C59.8413 6.87133 59.0295 5.96285 57.7537 5.96285ZM73.9535 9.98338H71.7692V14.5065H68.8312V0.627919H73.9535C77.3361 0.627919 79.443 2.23226 79.443 5.24766C79.443 8.26306 77.3361 9.98338 73.9535 9.98338ZM73.9341 3.10209H71.7692V7.50921H73.9341C75.5965 7.50921 76.5243 6.63938 76.5243 5.26699C76.5243 3.8946 75.5965 3.10209 73.9341 3.10209ZM85.5816 14.6998C82.5856 14.6998 80.3434 12.3416 80.3434 9.3455C80.3434 6.33011 82.5856 3.99124 85.5816 3.99124C88.5777 3.99124 90.8199 6.33011 90.8199 9.3455C90.8199 12.3416 88.5777 14.6998 85.5816 14.6998ZM85.5816 12.3222C86.9154 12.3222 88.0558 11.2591 88.0558 9.3455C88.0558 7.43189 86.9154 6.3881 85.5816 6.3881C84.2479 6.3881 83.1075 7.43189 83.1075 9.3455C83.1075 11.2591 84.2479 12.3222 85.5816 12.3222ZM101.252 11.2011C101.252 13.366 99.6091 14.6998 96.671 14.6998C93.7329 14.6998 92.0899 13.2887 91.8773 10.9885H94.4481C94.4675 12.0516 95.3759 12.7282 96.7097 12.7282C97.7535 12.7282 98.546 12.3996 98.546 11.665C98.546 11.0078 98.1207 10.7372 97.1349 10.5439L95.2793 10.196C93.4237 9.8674 92.3026 8.84294 92.3026 7.23859C92.3026 5.32498 93.9456 3.99124 96.5164 3.99124C99.1065 3.99124 100.885 5.36364 101.078 7.58652H98.5073C98.4107 6.58139 97.6568 5.96285 96.5164 5.96285C95.5306 5.96285 94.8734 6.33011 94.8734 6.98731C94.8734 7.60585 95.2986 7.85714 96.2264 8.0311L98.2174 8.39836C100.228 8.78495 101.252 9.71276 101.252 11.2011ZM109.296 11.897V14.2359C108.639 14.5645 108.02 14.6998 107.228 14.6998C105.102 14.6998 103.768 13.482 103.768 11.1625V6.48474H101.68V4.18454H103.768V1.13049H106.435V4.18454H109.393V6.48474H106.435V10.5439C106.435 11.7424 106.977 12.2256 107.943 12.2256C108.446 12.2256 108.91 12.1096 109.296 11.897Z" fill="#7551DC"/>
</svg>
